<?xml version="1.0" standalone="no"?>
<!DOCTYPE svg PUBLIC "-//W3C//DTD SVG 1.1//EN" "http://www.w3.org/Graphics/SVG/1.1/DTD/svg11.dtd" >
<svg xmlns="http://www.w3.org/2000/svg">
<metadata>Generated by IcoMoon</metadata>
<defs>
<font id="Senno" horiz-adv-x="1024">
<font-face units-per-em="1024" ascent="960" descent="-64" />
<missing-glyph horiz-adv-x="1024" />
<glyph unicode="&#x20;" horiz-adv-x="512" d="" />
<glyph unicode="&#xe900;" glyph-name="atom" horiz-adv-x="905" d="M794.587 446.548c90.272-97.381 130.707-193.156 95.648-254.586s-137.051-73.889-265.287-43.849c-38.397-128.312-100.566-212.112-170.913-212.112s-132.491 84.081-170.887 212.724c-129.663-30.906-232.929-18.498-268.217 43.314s5.402 157.333 95.674 254.79c-92.005 98.221-133.433 195.245-98.018 257.134s139.701 74.297 270.255 42.805c38.32 129.051 100.693 213.132 171.219 213.132s132.644-84.081 170.964-212.648c129.331 30.702 232.47 18.268 267.708-43.314s-6.191-159.040-98.12-257.338zM49.073 682.61c-27.084-47.416 10.192-125.127 89.38-207.297 33.554 32.526 69.676 62.933 107.839 90.704l2.867 1.988c5.156 52.997 13.354 100.72 24.696 147.21l-1.459-7.076c-110.528 28.409-196.112 22.090-223.323-25.53zM244.726 512.513c-28.624-21.792-53.848-43.187-77.913-65.801l0.508 0.473c23.625-22.262 48.899-43.763 75.234-63.949l2.324-1.711c-1.172 21.861-2.013 43.951-2.013 66.551 0 21.886 0.713 43.314 1.86 64.538zM249.133 326.16c-41.069 29.698-77.206 59.999-111.059 92.651l0.302-0.289c-77.685-81.533-113.738-158.25-86.909-205.259s111.751-53.863 221.285-26.065c-10.035 39.099-18.37 86.391-23.292 134.693l-0.352 4.269zM613.483 296.986c-17.555-11.542-35.518-22.931-54.219-33.785s-37.964-21.224-56.844-30.906c24.212-10.959 55.451-22.839 87.413-33.105l6.859-1.903c7.007 30.881 12.485 64.487 16.867 99.699zM453.984-21.348c53.914 0 101.738 70.271 132.695 179.423-52.851 15.709-97.236 32.772-139.972 52.771l6.131-2.577c-35.839-17.022-79.407-33.787-124.317-47.472l-7.078-1.855c30.881-109.432 78.628-180.289 132.542-180.289zM311.735 198.281c37.742 11.859 67.959 23.323 97.411 36.212l-6.222-2.427c-18.982 9.733-38.066 20.001-57.124 31.11-17.682 10.344-34.677 20.995-51.34 31.9 4.895-38.34 10.941-71.204 18.579-103.452l-1.33 6.657zM294.537 599.345c17.351 11.389 35.161 22.549 53.506 33.377s36.46 20.383 54.652 29.836c-31.543 13.453-62.398 25.479-91.724 34.524-6.803-30.193-12.128-63.315-16.459-97.737zM454.010 917.323c-54.066 0-102.145-70.959-133.051-180.901 51.984-15.768 95.519-32.713 137.46-52.479l-6.116 2.592c36.796 17.617 81.305 34.799 127.228 48.727l6.995 1.824c-30.881 109.33-78.577 180.213-132.491 180.213zM596.335 697.821c-38.91-12.176-70.243-24.083-100.751-37.52l6.198 2.435c18.319-9.402 36.69-19.288 55.035-30.040 19.772-11.542 38.677-23.543 57.124-35.671-4.855 39.625-11.041 73.869-18.953 107.446l1.321-6.652zM619.521 542.4c-26.371 18.345-54.245 36.257-83.698 53.506-28.18 16.459-56.054 30.83-83.775 44.257-27.288-13.3-54.958-28.027-82.73-44.257s-54.882-33.428-80.131-50.958c-2.548-31.39-4.102-63.519-4.102-96.82s1.376-66.653 3.822-98.4c24.689-16.969 50.754-33.556 77.991-49.455 28.97-16.893 57.71-31.645 86.144-45.353 28.027 13.631 56.589 28.715 85.125 45.353s55.213 33.658 80.666 51.264c2.395 31.263 4.102 63.264 4.102 96.591 0 32.358-1.172 63.901-3.414 94.272zM853.648 213.364c26.855 46.932-9.529 123.624-87.062 204.851-32.648-31.371-67.79-60.832-104.85-87.818l-2.875-1.995c-5.137-53.548-13.444-101.873-25.002-148.92l1.46 7.028c108.133-27.033 191.551-20.077 218.329 26.855zM663.32 383.818c27.135 20.714 52.003 41.735 74.45 62.653-22.716 21.647-46.927 42.499-72.158 62.099l-2.138 1.598c0.994-20.383 1.682-41.098 1.682-62.169-0.025-21.81-0.739-43.161-1.834-64.182zM855.941 682.61c-27.008 47.213-111.42 53.914-220.699 26.218 10.33-40.484 18.808-89.301 23.694-139.171l0.333-4.199c39.795-29.112 74.866-58.792 107.732-90.73l-0.236 0.229c79.265 82.323 116.439 160.161 89.176 207.654zM460.354 366.671c-0.258-0.003-0.562-0.004-0.866-0.004-46.802 0-84.743 37.941-84.743 84.743s37.941 84.743 84.743 84.743c46.801 0 84.741-37.938 84.743-84.738v0c0-0.091 0.001-0.199 0.001-0.307 0-46.384-37.457-84.020-83.773-84.308h-0.027z" />
<glyph unicode="&#xe901;" glyph-name="bomb" horiz-adv-x="1415" d="M1288.183 750.063l127.35-17.992-113.206-59.936 82.046-74.865-118.815 15.011 73.538-152.928-147.13 110.821-121.687-146.913 56.603 182.869-178.29-95.946 124.396 134.909-8.535 33.192c-37.497-20.076-82.026-31.87-129.311-31.87-0.597 0-1.193 0.002-1.789 0.006h0.092c-66.032 0-148.024 46.063-245.975 128.406 0 0-110.903 117.324-204.139 117.324-95.919 0-86.544-144.285-86.408-145.721h108.681v-98.168c136.634-54.513 231.426-185.706 231.426-339.038 0-1.614-0.010-3.225-0.031-4.834l0.003 0.244c-0.386-203.225-165.222-367.822-368.501-367.822-203.518 0-368.501 164.984-368.501 368.501 0 155.037 95.743 287.711 231.327 342.124l2.481 0.879v98.141h97.084c0 0.732-11.163 106.378 44.572 164.986 26.544 28.869 64.491 46.896 106.649 46.896 0.848 0 1.694-0.007 2.538-0.022l-0.127 0.002c129.382 0 245.487-136.156 245.487-136.156q127.648-109.548 208.176-109.521c33.087 4.005 63.148 11.476 91.638 22.161l-2.71-0.891-70.042 55.167 121.687-8.969-93.345 143.905 152.793-107.922 16.989 101.961 28.261-92.965 113.206 134.909-25.47-149.92 130.059 29.968-113.124-89.985z" />
<glyph unicode="&#xe902;" glyph-name="clipboard" horiz-adv-x="896" d="M864.020 832h-288.020c0 70.692-57.308 128-128 128s-128-57.308-128-128v0h-287.98c-17.684 0-32.020-14.336-32.020-32.020v0-832c0.022-17.667 14.35-31.98 32.020-31.98 0 0 0 0 0 0h832c17.67 0 31.997 14.313 32.020 31.978v832.002c0 17.684-14.336 32.020-32.020 32.020v0zM448 896c35.346 0 64-28.654 64-64s-28.654-64-64-64c-35.346 0-64 28.654-64 64v0c0 35.346 28.654 64 64 64v0zM832 0h-768v768h128v-96.020c0-17.684 14.336-32.020 32.020-32.020v0h448c17.67 0 31.997 14.313 32.020 31.978v96.061h128zM384.118 101.494l-205.351 237.253 58.486 58.486 146.865-114.767 274.747 242.767 58.526-58.486z" />
<glyph unicode="&#xe903;" glyph-name="direction" horiz-adv-x="729" d="M439.943 960h-189.636v-113.766h189.636zM439.943 504.883v75.87h-189.636v-75.844zM250.306-64h189.636v303.429h-189.636v-303.429zM705.423 618.675l-82.945 94.805 82.945 94.805h-606.805l-98.618-94.805 98.618-94.805zM629.579 466.961h-606.831l82.971-94.805-82.971-94.831h606.831l99.565 94.805z" />
<glyph unicode="&#xe904;" glyph-name="dollar" horiz-adv-x="1820" d="M0-64v1024h1820.423v-1024zM113.789 849.744v-799.955h1592.845v799.955zM1194.667 448c0 188.459-127.33 341.333-284.553 341.333h739.643v-682.667h-739.545c157.126 0 284.455 152.874 284.455 341.333zM1422.211 334.211c47.099 0 85.333 50.958 85.333 113.789s-38.235 113.789-85.333 113.789-85.333-50.958-85.333-113.789 38.235-113.789 85.333-113.789zM1030.705 591.454c-0.589-2.642-1.828-4.934-3.541-6.78l0.008 0.009c-1.519-1.311-3.512-2.109-5.691-2.109-0.184 0-0.367 0.006-0.548 0.017l0.025-0.001c-4.72 0.72-8.933 2.452-12.559 4.97l0.098-0.064c-5.691 3.271-12.69 6.869-20.933 10.761-7.895 3.724-17.445 7.341-27.298 10.254l-1.484 0.376c-10.23 2.998-21.982 4.723-34.138 4.723-0.647 0-1.293-0.005-1.938-0.015l0.097 0.001c-0.544 0.013-1.185 0.020-1.827 0.020-8.871 0-17.425-1.358-25.465-3.878l0.603 0.163c-7.307-2.303-13.637-5.801-19.098-10.313l0.095 0.076c-4.918-4.209-8.793-9.491-11.282-15.493l-0.1-0.271c-2.339-5.632-3.698-12.173-3.698-19.032 0-0.151 0.001-0.301 0.002-0.452v0.023c-0.008-0.304-0.012-0.663-0.012-1.022 0-9.6 3.147-18.465 8.467-25.618l-0.082 0.115c6.166-7.961 13.596-14.598 22.047-19.718l0.357-0.201c8.985-5.646 19.453-11.121 30.351-15.781l1.506-0.572c11.775-5.135 23.909-10.532 36.24-16.157 14.469-6.747 26.348-13.214 37.806-20.297l-1.566 0.901c12.103-7.405 22.523-15.993 31.602-25.837l0.091-0.1c9.138-10.082 16.683-21.823 22.102-34.68l0.302-0.807c5.383-13.408 8.506-28.953 8.506-45.226 0-1.038-0.013-2.073-0.038-3.105l0.003 0.153c0.024-0.968 0.037-2.108 0.037-3.251 0-21.919-4.959-42.68-13.816-61.222l0.369 0.858c-8.945-18.206-21.33-33.448-36.427-45.42l-0.27-0.207c-15.296-12.052-33.3-21.488-52.876-27.256l-1.124-0.284c-2.617-0.785-5.462-1.145-8.144-1.766v-62.144h-55.929v54.883c-0.752 0-1.374 0-2.061 0-0.462-0.003-1.008-0.005-1.555-0.005-15.093 0-29.86 1.394-44.18 4.061l1.482-0.229c-14.003 2.593-26.088 5.821-37.791 9.867l1.813-0.545c-10.126 3.41-18.771 7.281-26.968 11.859l0.802-0.411c-5.738 3.069-10.687 6.589-15.135 10.649l0.057-0.052c-3.283 3.598-5.602 8.128-6.517 13.149l-0.025 0.163c-1.292 6.651-2.031 14.3-2.031 22.122 0 1.042 0.013 2.082 0.039 3.118l-0.003-0.153c0 7.326 0.229 13.475 0.752 18.48 0.353 4.448 1.177 8.565 2.43 12.492l-0.107-0.39c0.757 2.642 2.245 4.871 4.231 6.524l0.021 0.017c1.68 1.208 3.779 1.931 6.047 1.931 0.059 0 0.118 0 0.176-0.001h-0.009c5.374-0.735 10.158-2.823 14.131-5.905l-0.067 0.050c6.357-4.128 13.97-8.479 21.819-12.428l1.436-0.655c9.505-4.775 20.765-9.225 32.445-12.699l1.506-0.384c12.968-3.73 27.864-5.874 43.26-5.874 0.89 0 1.778 0.007 2.664 0.021l-0.134-0.002c0.443-0.007 0.966-0.011 1.489-0.011 10.352 0 20.354 1.497 29.802 4.287l-0.743-0.188c8.769 2.538 16.402 6.495 23.049 11.66l-0.153-0.115c6.119 4.898 10.997 11.086 14.263 18.17l0.128 0.31c3.166 6.982 5.011 15.139 5.011 23.727 0 0.317-0.003 0.634-0.008 0.949l0.001-0.048c0.010 0.351 0.016 0.765 0.016 1.179 0 9.755-3.211 18.761-8.634 26.017l0.082-0.114c-6.203 7.868-13.561 14.487-21.885 19.71l-0.356 0.208c-8.768 5.609-18.969 11.075-29.589 15.769l-1.483 0.585q-17.4 7.686-35.978 16.157c-14.187 6.554-25.983 13.022-37.301 20.176l1.323-0.781c-11.85 7.427-22.062 15.985-30.968 25.756l-0.104 0.116c-9.087 10.142-16.564 21.965-21.88 34.904l-0.295 0.812c-5.409 14.611-8.538 31.487-8.538 49.095 0 21.122 4.503 41.193 12.603 59.304l-0.369-0.922c8.033 16.561 19.198 30.437 32.833 41.357l0.234 0.181c13.886 10.893 30.258 19.369 48.062 24.45l0.999 0.244c8.401 2.551 18.53 4.727 28.911 6.104l1.016 0.11v58.873h55.929v-58.873c2.224-0.294 4.448-0.164 6.541-0.523 11.784-1.745 22.101-4.084 32.118-7.113l-1.57 0.408c9.832-2.816 18.211-6.045 26.227-9.91l-0.976 0.424c5.568-2.378 10.368-5.342 14.649-8.907l-0.094 0.076c1.847-1.738 3.449-3.705 4.77-5.862l0.070-0.124c0.852-1.867 1.573-4.055 2.056-6.33l0.037-0.211c0.676-3.073 1.112-6.64 1.209-10.292l0.002-0.077c0.229-4.088 0.327-9.289 0.327-15.405 0-6.869-0.164-12.756-0.523-17.531-0.407-4.339-1.088-8.271-2.046-12.094l0.116 0.548zM625.789 447.967c0-188.459 127.33-341.333 284.553-341.333h-739.675v682.699h739.545c-157.126 0-284.455-152.874-284.455-341.333zM398.244 561.756c-47.164 0-85.333-50.958-85.333-113.789s38.169-113.789 85.333-113.789 85.333 50.958 85.333 113.789-38.268 113.821-85.366 113.821z" />
<glyph unicode="&#xe905;" glyph-name="checkmark" d="M512 960c-282.77 0-512-229.23-512-512s229.23-512 512-512c282.77 0 512 229.23 512 512v0c0 282.77-229.23 512-512 512v0zM797.85 593.459l-373.76-373.76c-4.342-4.326-10.332-7.001-16.947-7.001s-12.605 2.675-16.948 7.002l-7.525 7.525-205.414 207.155c-4.341 4.345-7.026 10.345-7.026 16.973s2.685 12.628 7.027 16.973v0l51.2 50.944c4.345 4.341 10.345 7.026 16.973 7.026s12.628-2.685 16.973-7.027v0l145.306-146.33 305.203 305.459c4.345 4.341 10.345 7.026 16.973 7.026s12.628-2.685 16.973-7.027l51.2-51.2c4.354-4.339 7.048-10.341 7.048-16.973s-2.694-12.634-7.047-16.972l-0.001-0.001z" />
<glyph unicode="&#xe906;" glyph-name="hourglass" horiz-adv-x="721" d="M701.622 11.864c10.472-0.014 18.958-8.5 18.972-18.971v-56.893h-720.594v56.892c0 10.478 8.494 18.972 18.972 18.972v0h63.403c2.975 252.513 168.017 333.888 168.017 436.039 0 102.59-167.968 109.418-169.577 436.331h-61.842c0 0 0 0 0 0-10.444 0-18.916 8.439-18.972 18.869v56.897h720.594v-56.892c-0.014-10.472-8.5-18.958-18.971-18.972h-58.039c-1.585-326.913-169.553-333.814-169.553-436.234 0-102.054 164.969-183.453 168.114-435.966zM421.383 447.902c0 103.005 168.017 109.418 169.577 436.331h-457.498c1.561-327.011 169.553-333.424 169.553-436.331 0-99.030-165.017-182.502-168.114-435.966h28.751c13.047 31.263 37.034 55.788 67.067 69.219l0.822 0.329 50.332 25.678c21.846 10.313 40.501 21.331 58.024 33.834l-1.132-0.767c9.213 10.771 16.506 23.5 21.156 37.44l0.23 0.797c5.251-14.682 12.578-27.366 21.772-38.443l-0.167 0.207c16.267-11.897 34.727-22.918 54.19-32.172l2.092-0.895 50.064-25.678c30.726-13.786 54.58-38.313 67.161-68.692l0.314-0.856h33.896c-3.097 253.366-168.090 336.863-168.090 435.966zM381.903 503.575c-6.009-15.007-10.080-32.383-11.38-50.527l-0.032-0.561c-0.756-7.584-2.439-18.996-5.121-34.14q-3.975 22.801-5.121 34.14c-1.353 18.711-5.449 36.085-11.9 52.265l0.414-1.177c-11.795 18.123-24.605 33.9-38.878 48.218l0.007-0.008-47.454 51.893c-22.311 22.642-42.797 47.224-61.137 73.419l-1.217 1.835c46.196-32.099 103.045-51.946 164.421-53.76l0.45-0.011c62.008 1.878 119.031 21.712 166.469 54.447l-1.037-0.676c-19.895-27.956-40.429-52.52-62.687-75.397l0.138 0.143-47.259-51.893c-14.207-14.298-26.956-30.076-37.985-47.074l-0.691-1.136z" />
<glyph unicode="&#xe907;" glyph-name="lamp" horiz-adv-x="564" d="M286.683 960c-2.226 0.064-4.844 0.1-7.472 0.1-154.221 0-279.242-125.021-279.242-279.242 0-1.473 0.011-2.943 0.034-4.41l-0.003 0.222c0-151.376 140.869-246.557 140.869-494.112h142.628l138.040-0.642c4.065 249.362 142.771 347.466 142.771 495.942 0 126.701-89.594 282.024-277.626 282.024zM403.757 146.044h-245.035c-9.669 0-17.508-7.838-17.508-17.508s7.838-17.508 17.508-17.508v0h245.059c9.669 0 17.508 7.838 17.508 17.508s-7.838 17.508-17.508 17.508v0zM403.757 76.037h-245.035c-9.669 0-17.508-7.838-17.508-17.508s7.838-17.508 17.508-17.508v0h245.059c9.669 0 17.508 7.838 17.508 17.508s-7.838 17.508-17.508 17.508v0zM176.194 6.031v-35.015c0-0.007 0-0.015 0-0.024 0-19.325 15.666-34.991 34.991-34.991 0.008 0 0.017 0 0.025 0h140.535c0.007 0 0.015 0 0.024 0 19.325 0 34.991 15.666 34.991 34.991 0 0.008 0 0.017 0 0.025v-0.001 34.991h-210.519z" />
<glyph unicode="&#xe908;" glyph-name="stopwatch" horiz-adv-x="832" d="M447.996 766.786v65.205h128.009v64.016c0 35.342-28.65 63.993-63.993 63.993-0.008 0-0.017 0-0.025 0h-191.976c-35.342 0-63.993-28.65-63.993-63.993v0-64.016h128.009v-65.205c-215.564-17.13-384.003-196.278-384.003-414.767 0-229.75 186.249-415.999 415.999-415.999s415.999 186.249 415.999 415.999c0 218.489-168.439 397.637-382.547 414.674l-1.456 0.093zM642.279 125.624c-57.908-57.915-137.91-93.737-226.279-93.737-176.724 0-319.987 143.263-319.987 319.987 0 173.163 137.547 314.199 309.345 319.813l0.515 0.013-21.656-314.020c-1.854-26.315 12.456-37.797 31.83-37.797s33.684 11.529 31.83 37.797l-21.656 314.020c172.304-5.622 309.846-146.65 309.846-319.803 0-88.368-35.823-168.369-93.74-226.273v0z" />
<glyph unicode="&#xe909;" glyph-name="medal" horiz-adv-x="780" d="M390.064 538.413c-166.352 0-301.207-134.855-301.207-301.207s134.855-301.207 301.207-301.207c166.352 0 301.207 134.855 301.207 301.207v0c-0.021 166.344-134.863 301.186-301.205 301.207h-0.002zM390.064-19.992c-0.011 0-0.024 0-0.037 0-140.753 0-254.856 114.103-254.856 254.856s114.103 254.856 254.856 254.856c140.727 0 254.814-114.061 254.856-254.779v-0.004c0-0.011 0-0.024 0-0.037 0-140.748-114.078-254.851-254.816-254.892h-0.004zM541.491 779.357l103.392 180.68h-509.712l104.783-180.68h301.353zM595.567 471.816l184.598 303.879-123.785 179.069-232.486-408.773c66.318-7.028 125.305-33.923 172.055-74.537l-0.382 0.325zM355.392 548.298l-231.681 406.466-123.748-179.179 179.179-309.261c47.121 43.358 107.616 72.854 174.628 81.654l1.622 0.174zM348.619 304.39c-11.077-9.196-23.961-16.719-37.97-21.927l-0.912-0.297v-41.408c22.971 7.482 42.712 19.333 59.146 34.682l-0.090-0.084v-172.479h45.765v239.735h-37.125c-5.974-15.618-15.909-28.594-28.593-38.101l-0.22-0.158z" />
<glyph unicode="&#xe90a;" glyph-name="rocket" d="M704 896l-320-320h-192l-192-256s203.424 56.64 322.080 30.080l-322.080-414.080 421.888 328.16c58.848-134.656-37.888-328.16-37.888-328.16l256 192v192l320 320 64 320z" />
<glyph unicode="&#xe90b;" glyph-name="users" horiz-adv-x="1152" d="M768.012 189.489v52.762c77.477 51.848 127.848 138.946 128.017 237.82v0.026c0 159.073 0 288.016-191.98 288.016s-191.98-128.943-191.98-288.016c0.139-98.945 50.537-186.089 127.029-237.286l1.035-0.652v-52.669c-217.111-17.772-384.145-124.407-384.145-253.397h895.983c0 128.85-166.895 235.578-383.96 253.397zM327.217 164.682c57.325 36.58 124.216 64.455 195.775 79.727l3.98 0.712c-14.67 17.307-28.083 36.624-39.554 57.171l-0.943 1.839c-28.729 50.678-45.835 111.23-46.282 175.741l-0.001 0.132c-1.123 13.395-1.763 28.99-1.763 44.736 0 67.755 11.855 132.741 33.604 192.997l-1.248-3.96c29.446 63.339 88.038 108.781 158.061 119.359l1.15 0.143c-17.078 76.459-62.111 126.721-181.983 126.721-192.026 0-192.026-128.943-192.026-288.016 0.21-98.908 50.631-185.994 127.119-237.147l1.037-0.653v-52.716c-217.25-17.819-384.145-124.5-384.145-253.443h278.991c14.348 12.742 30.072 24.804 46.632 35.699l1.548 0.956z" />
<glyph unicode="&#xe90c;" glyph-name="ellipsis" horiz-adv-x="4202" d="M3739.68-64c-258.56 14.358-462.788 227.525-462.788 488.391 0 8.378 0.211 16.707 0.627 24.981l-0.047-1.163c-0.357 6.986-0.56 15.169-0.56 23.4 0 260.86 204.217 474.022 461.499 488.334l1.269 0.056c258.551-14.369 462.768-227.531 462.768-488.39 0-8.23-0.203-16.413-0.605-24.544l0.045 1.144c0.37-7.112 0.58-15.441 0.58-23.819 0-260.867-204.229-474.034-461.521-488.335l-1.267-0.056zM2100.944-64c-257.327 14.977-460.335 227.312-460.335 487.063 0 8.845 0.235 17.636 0.7 26.365l-0.052-1.218c-0.399 7.385-0.627 16.030-0.627 24.728 0 259.743 202.996 472.074 458.996 487.001l1.318 0.061c257.318-14.988 460.314-227.319 460.314-487.062 0-8.698-0.228-17.343-0.677-25.929l0.050 1.201c0.413-7.511 0.649-16.301 0.649-25.147 0-259.75-203.007-472.086-459.017-487.002l-1.318-0.061zM462.208-64c-258.56 14.358-462.788 227.525-462.788 488.391 0 8.378 0.211 16.707 0.627 24.981l-0.047-1.163c-0.357 6.986-0.56 15.169-0.56 23.4 0 260.86 204.217 474.022 461.499 488.334l1.269 0.056c258.551-14.369 462.768-227.531 462.768-488.39 0-8.23-0.203-16.413-0.605-24.544l0.045 1.144c0.37-7.112 0.58-15.441 0.58-23.819 0-260.867-204.229-474.034-461.521-488.335l-1.267-0.056z" />
<glyph unicode="&#xe90d;" glyph-name="neutral" d="M512-64c282.77 0 512 229.23 512 512s-229.23 512-512 512c-282.77 0-512-229.23-512-512v0c0-282.77 229.23-512 512-512v0zM512 863.98c0.012 0 0.026 0 0.039 0 229.761 0 416.020-186.258 416.020-416.020s-186.258-416.020-416.020-416.020c-229.761 0-416.020 186.258-416.020 416.020 0 0.014 0 0.028 0 0.041v-0.002c0 229.74 186.241 415.98 415.98 415.98v0zM256 640c0-35.346 28.654-64 64-64s64 28.654 64 64c0 35.346-28.654 64-64 64v0c-35.346 0-64-28.654-64-64v0zM640 640c0-35.346 28.654-64 64-64s64 28.654 64 64c0 35.346-28.654 64-64 64v0c-35.346 0-64-28.654-64-64v0zM384 256h256v-64h-256z" />
<glyph unicode="&#xe90e;" glyph-name="sad" d="M511.98-64c282.759 0 511.98 229.221 511.98 511.98s-229.221 511.98-511.98 511.98c-282.745 0-511.957-229.198-511.98-511.938v-0.002c0-0.012 0-0.026 0-0.040 0-282.759 229.221-511.98 511.98-511.98v0zM511.98 864.009c0.059 0 0.13 0 0.2 0 229.744 0 415.989-186.244 415.989-415.989s-186.244-415.989-415.989-415.989c-229.744 0-415.989 186.244-415.989 415.989v0c0.114 229.588 186.201 415.674 415.777 415.788h0.011zM255.99 640.003c0 35.417 28.711 64.128 64.128 64.128s64.128-28.711 64.128-64.128c0-35.417-28.711-64.128-64.128-64.128v0c-35.417 0-64.128 28.711-64.128 64.128v0zM639.995 640.003c0 35.417 28.711 64.128 64.128 64.128s64.128-28.711 64.128-64.128c0-35.417-28.711-64.128-64.128-64.128v0c-35.417 0-64.128 28.711-64.128 64.128v0zM319.917 179.084l-82.364 49.579c56.961 93.703 158.496 155.336 274.427 155.336s217.466-61.633 273.627-153.921l0.8-1.415-82.324-49.418c-39.869 65.6-110.947 108.75-192.103 108.75s-152.234-43.15-191.543-107.759l-0.56-0.991z" />
<glyph unicode="&#xe90f;" glyph-name="smile" d="M512-64c282.77 0 512 229.23 512 512s-229.23 512-512 512c-282.77 0-512-229.23-512-512v0c0-282.77 229.23-512 512-512v0zM512 863.98c0.012 0 0.026 0 0.039 0 229.761 0 416.020-186.258 416.020-416.020s-186.258-416.020-416.020-416.020c-229.761 0-416.020 186.258-416.020 416.020 0 0.014 0 0.028 0 0.041v-0.002c0 229.74 186.241 415.98 415.98 415.98v0zM256 640c0 35.346 28.654 64 64 64s64-28.654 64-64c0-35.346-28.654-64-64-64v0c-35.346 0-64 28.654-64 64v0zM640 640c0 35.346 28.654 64 64 64s64-28.654 64-64c0-35.346-28.654-64-64-64v0c-35.346 0-64 28.654-64 64v0zM704.079 332.8l82.353-49.388c-56.96-93.707-158.498-155.344-274.432-155.344s-217.472 61.637-273.632 153.928l-0.8 1.416 82.353 49.388c39.874-65.589 110.948-108.731 192.098-108.731s152.224 43.141 191.539 107.74l0.56 0.99z" />
<glyph unicode="&#xe910;" glyph-name="cancel" d="M512-64c-282.77 0-512 229.23-512 512s229.23 512 512 512c282.77 0 512-229.23 512-512v0c0-282.77-229.23-512-512-512v0zM746.752 597.299c4.456 4.464 7.211 10.627 7.211 17.434s-2.756 12.969-7.212 17.434v0l-52.275 52.275c-4.464 4.456-10.627 7.211-17.434 7.211s-12.969-2.756-17.434-7.212v0l-148.122-148.122-147.968 148.122c-4.464 4.456-10.627 7.211-17.434 7.211s-12.969-2.756-17.434-7.212v0l-52.429-52.122c-4.456-4.464-7.211-10.627-7.211-17.434s2.756-12.969 7.212-17.434v0l148.173-148.173-148.173-148.224c-4.456-4.464-7.211-10.627-7.211-17.434s2.756-12.969 7.212-17.434v0l52.326-52.326c4.464-4.456 10.627-7.211 17.434-7.211s12.969 2.756 17.434 7.212v0l148.122 148.173 148.122-148.173c4.464-4.456 10.627-7.211 17.434-7.211s12.969 2.756 17.434 7.212v0l52.326 52.326c4.456 4.464 7.211 10.627 7.211 17.434s-2.756 12.969-7.212 17.434v0l-148.173 148.070 148.173 148.173z" />
<glyph unicode="&#xe911;" glyph-name="lock" horiz-adv-x="683" d="M631.454 550.4h-17.054v204.8c-0.134 113.054-91.746 204.666-204.787 204.8h-136.559c-113.054-0.134-204.666-91.746-204.8-204.787v-204.813h-17.054c-28.277 0-51.2-22.923-51.2-51.2v0-512c0-28.277 22.923-51.2 51.2-51.2v0h580.254c28.277 0 51.2 22.923 51.2 51.2v512c0 28.277-22.923 51.2-51.2 51.2v0zM204.8 755.2c0.045 37.677 30.576 68.209 68.249 68.254h136.551c37.677-0.045 68.209-30.576 68.254-68.249v-204.804h-273.054z" />
<glyph unicode="&#xe912;" glyph-name="suitcase" horiz-adv-x="1106" d="M1024-64h-163.84v860.16h163.84c45.243 0 81.92-36.677 81.92-81.92v0-696.32c0-45.243-36.677-81.92-81.92-81.92v0zM327.68 796.16v0 81.92c0 45.243 36.677 81.92 81.92 81.92v0h286.72c45.243 0 81.92-36.677 81.92-81.92v0-942.080h-450.56zM409.6 796.16h286.72v40.96c0 22.622-18.338 40.96-40.96 40.96v0h-204.8c-22.622 0-40.96-18.338-40.96-40.96v0zM0 17.92v696.32c0 45.243 36.677 81.92 81.92 81.92v0h163.84v-860.16h-163.84c-45.243 0-81.92 36.677-81.92 81.92v0z" />
<glyph unicode="&#xe913;" glyph-name="pushpin" d="M544 960l-96-96 96-96-224-256h-224l176-176-272-360.608v-39.392h39.392l360.608 272 176-176v224l256 224 96-96 96 96zM448 416l-64 64 224 224 64-64z" />
<glyph unicode="&#xe914;" glyph-name="question" d="M512-63.967c-281.745 0.33-510.016 228.805-510.016 510.596 0 281.994 228.602 510.596 510.596 510.596s510.596-228.602 510.596-510.596c0-210.236-127.061-390.795-308.579-469.074l-3.314-1.272c-58.5-25.447-126.646-40.251-198.25-40.251-0.363 0-0.727 0-1.090 0.001h0.056zM500.554 281.071c-0.673 0.026-1.464 0.041-2.258 0.041-16.574 0-31.648-6.425-42.867-16.92l0.035 0.033c-10.864-10.944-17.578-26.020-17.578-42.664 0-16.47 6.574-31.405 17.242-42.323l-0.011 0.012c12.188-10.35 28.102-16.644 45.485-16.644s33.298 6.294 45.587 16.728l-0.101-0.084c10.656 10.906 17.231 25.841 17.231 42.312 0 16.644-6.714 31.72-17.581 42.667l0.004-0.004c-11.179 10.445-26.241 16.859-42.801 16.859-0.839 0-1.675-0.016-2.506-0.049l0.12 0.004zM508.3 647.267c1.308 0.103 2.833 0.162 4.371 0.162 15.911 0 30.351-6.295 40.967-16.53l-0.018 0.017c9.549-11.877 15.326-27.139 15.326-43.751 0-1.849-0.072-3.68-0.212-5.493l0.015 0.24c-0.055-15.273-4.38-29.524-11.842-41.636l0.198 0.346c-13.457-19.326-28.833-36.003-46.192-50.37l-0.416-0.335c-20.342-17.038-36.652-38.182-47.769-62.219l-0.458-1.104c-8.474-23.116-13.376-49.807-13.376-77.642 0-3.055 0.059-6.097 0.176-9.123l-0.013 0.436h99.097l1.519 23.651c3.139 26.356 15.453 49.37 33.606 66.165l0.071 0.065 31.381 29.729c20.239 18.446 37.368 39.843 50.816 63.6l0.664 1.276c9.298 18.037 14.749 39.363 14.749 61.962 0 0.049 0 0.097 0 0.146v-0.008c0.144 2.393 0.227 5.191 0.227 8.009 0 41.098-17.514 78.106-45.486 103.967l-0.095 0.086c-30.026 26.426-72.869 39.639-127.356 39.639-3.026 0.175-6.566 0.275-10.13 0.275-44.99 0-86.269-15.893-118.528-42.37l0.327 0.26c-29.481-27.392-47.867-66.377-47.867-109.656 0-2.095 0.043-4.18 0.128-6.254l-0.010 0.297h112.227c-0.020 0.613-0.031 1.334-0.031 2.058 0 17.926 6.852 34.252 18.080 46.501l-0.046-0.051c11.084 10.933 26.316 17.685 43.125 17.685 0.97 0 1.934-0.022 2.893-0.067l-0.136 0.005z" />
<glyph unicode="&#xe915;" glyph-name="diamond" horiz-adv-x="1157" d="M3.27 625.633l554.587-688.226-222.332 688.226h-332.256zM395.661 625.633l196.382-689.633 168.984 689.633h-365.241zM621.924-62.593l533.894 688.226h-329.524l-204.245-688.226zM1157.101 670.663l-160.044 273.652-160.127-273.652zM946.896 960h-320.336l160.044-283.046zM737.56 670.663l-160.21 273.652-160.21-273.652zM530.624 960h-320.419l160.085-283.046 160.044 283.046zM160.21 944.314l-160.168-273.652h320.129l-160.085 273.652z" />
<glyph unicode="&#xe916;" glyph-name="fire" horiz-adv-x="889" d="M250.224-64c-68.252 142.007-31.998 223.378 20.543 300.013 32.99 47.68 58.013 103.659 71.644 163.958l0.608 3.199c19.995-30.245 31.9-67.362 31.9-107.26 0-15.289-1.748-30.17-5.055-44.454l0.258 1.323c53.167 64.842 85.393 148.632 85.393 239.948 0 15.676-0.95 31.129-2.794 46.307l0.181-1.825c180.309-126.2 257.36-399.015 153.526-601.21 552.349 312.524 137.399 780.111 65.18 832.812 24.094-52.669 28.798-141.847-19.999-185.108-82.395 312.236-285.998 376.232-285.998 376.232 24.094-161.046-87.291-337.131-194.676-468.707 0.022 1.458 0.035 3.178 0.035 4.901 0 60.469-15.42 117.337-42.541 166.886l0.909-1.814c-7.584-116.665-96.73-211.731-120.856-328.619-32.638-158.23 24.542-274.127 241.809-396.583z" />
<glyph unicode="&#xe917;" glyph-name="shrink" d="M448 384v-416l-160 160-192-192-96 96 192 192-160 160zM1024 864l-192-192 160-160h-416v416l160-160 192 192z" />
<glyph unicode="&#xe918;" glyph-name="stats" horiz-adv-x="934" d="M43.987 960h-44.032v-1024h890.435v42.874l-845.913 2.182-0.49 978.944zM133.521 69.565h222.609v484.174l-222.609-222.609zM400.651 69.565h222.609v439.652l-89.043-89.043-133.565 133.565zM667.782 69.565h222.609v676.152l-222.609-222.609zM372.87 689.887l161.169-160.278 318.241 316.639 81.653-82.143-1.959 195.896-196.563-1.024 76.444-76.666-278.127-278.706-164.018 164.953-250.346-249.322 41.806-40.604 211.701 211.523z" />
<glyph unicode="&#xe919;" glyph-name="stats2" horiz-adv-x="890" d="M43.943 960h-43.943v-1024h890.435v42.874l-845.913 2.226-0.579 978.899zM356.174 567.674l-222.609 222.609v-720.718h222.609zM400.696 598.261v-528.696h222.609v573.217l-89.043 89.043zM667.826 470.261v-400.696h222.609v400.696zM539.559 854.439l233.383-234.14-65.313-61.885 182.539-1.959-0.712 176.484-78.848-76.533-270.959 274.788-166.734-168.604-192.2 192.067-39.046-40.559 228.085-230.133 169.806 170.429z" />
<glyph unicode="&#xe91a;" glyph-name="magnifier" horiz-adv-x="1001" d="M980.926-19.554l-24.315-24.315c-12.451-12.461-29.657-20.168-48.664-20.168s-36.213 7.708-48.663 20.168v0l-194.656 194.45c-12.022 12.242-19.444 29.037-19.444 47.566 0 12.991 3.648 25.13 9.976 35.448l-0.169-0.296-106.313 106.313c-56.649-42.398-128.092-67.889-205.489-67.889-190.502 0-344.934 154.432-344.934 344.934s154.432 344.934 344.934 344.934c190.502 0 344.934-154.432 344.934-344.934 0-88.841-33.586-169.837-88.754-230.984l0.271 0.305 104.084-104.084c10.003 6.149 22.12 9.791 35.087 9.791 18.537 0 35.336-7.443 47.571-19.504l194.648-194.579c12.454-12.461 20.157-29.671 20.157-48.681s-7.703-36.22-20.157-48.681v0zM601.354 617.363c0 0.010 0 0.022 0 0.034 0 142.507-115.525 258.032-258.032 258.032s-258.032-115.525-258.032-258.032c0-142.495 115.505-258.012 257.996-258.032h0.002c0.010 0 0.022 0 0.034 0 142.495 0 258.012 115.505 258.032 257.996v0.002z" />
<glyph unicode="&#xe91b;" glyph-name="upload" horiz-adv-x="1194" d="M926.466 97.949c-4.542-1.474-9.768-2.324-15.193-2.324-28.069 0-50.823 22.754-50.823 50.823 0 22.644 14.809 41.829 35.27 48.399l0.36 0.1c130.492 41.211 196.676 147.051 196.676 314.52 0.005 0.708 0.008 1.546 0.008 2.385 0 191.848-155.523 347.371-347.371 347.371-169.537 0-310.708-121.454-341.249-282.101l-0.343-2.168-10.289-54.448-53.322 15.005c-15.254 4.456-32.777 7.020-50.899 7.020-103.856 0-188.048-84.192-188.048-188.048 0-103.663 83.88-187.736 187.47-188.047h0.030l10.343 0.697c0.503 0.018 1.093 0.028 1.686 0.028 28.088 0 50.857-22.769 50.857-50.857 0-26.795-20.722-48.75-47.015-50.714l-0.169-0.010-3.376-0.268c-4.073-0.322-8.146-0.589-12.326-0.589-160.12 0-289.923 129.803-289.923 289.923s129.803 289.923 289.923 289.923v0c9.218 0 18.435-0.482 27.653-1.393 58.176 184.934 228.087 316.721 428.779 316.721 247.757 0 448.603-200.846 448.603-448.603 0-0.736-0.002-1.472-0.005-2.208v0.114c0-213.932-92.497-356.267-267.575-411.519zM564.679 465.256s0 0.429 0.429 0.589c9.18 9.209 21.877 14.906 35.905 14.906s26.725-5.698 35.904-14.905l0.001-0.001s0-0.322 0.268-0.429l139.817-140.353c9.215-9.197 14.916-21.912 14.916-35.959 0-28.045-22.725-50.783-50.765-50.803h-0.002c-0.026 0-0.057 0-0.088 0-13.955 0-26.585 5.675-35.708 14.843l-53.592 53.86v-320.094c0.017-0.491 0.027-1.069 0.027-1.648 0-27.999-22.697-50.696-50.696-50.696s-50.696 22.697-50.696 50.696c0 0.58 0.010 1.157 0.029 1.732l-0.002-0.084v320.255l-53.59-54.019c-9.157-9.171-21.815-14.844-35.798-14.844s-26.641 5.673-35.798 14.843l-0.001 0.001c-9.189 9.209-14.871 21.92-14.871 35.959s5.682 26.75 14.872 35.96l-0.001-0.001 139.656 140.192z" />
<glyph unicode="&#xe91c;" glyph-name="google-drive" d="M975.615 386.945l-292.927 507.455h-341.376l292.991-507.455zM292.865 810.431l-292.865-507.455 170.688-295.551 292.8 507.262zM472 322.944l-183.296-321.344h564.608l170.688 321.344z" />
<glyph unicode="&#xe91d;" glyph-name="lab" horiz-adv-x="952" d="M920.231 155.506l-316.268 527.007v213.427h31.998c17.672 0 31.998 14.326 31.998 31.998s-14.326 31.998-31.998 31.998v0h-319.98c-17.672 0-31.998-14.326-31.998-31.998s14.326-31.998 31.998-31.998v0h31.998v-213.427l-316.268-527.007c-72.443-120.728-16.511-219.506 124.28-219.506h639.96c140.791 0 196.724 98.778 124.28 219.506zM205.011 319.976l206.963 344.906v231.058h127.992v-231.058l206.963-344.906h-541.886z" />
<glyph unicode="&#xe91e;" glyph-name="arrow-down" d="M512-64c282.77 0 512 229.23 512 512s-229.23 512-512 512c-282.77 0-512-229.23-512-512v0c0-282.77 229.23-512 512-512v0zM315.099 408.62c7.134 7.116 16.979 11.517 27.853 11.517s20.719-4.4 27.854-11.518l101.872-101.872v377.534c0 21.749 17.631 39.38 39.38 39.38s39.38-17.631 39.38-39.38v0-377.534l101.873 101.873c7.128 7.128 16.976 11.537 27.853 11.537 21.754 0 39.39-17.635 39.39-39.39 0-10.877-4.409-20.725-11.537-27.853l-169.048-169.106c-7.134-7.116-16.979-11.517-27.853-11.517s-20.719 4.4-27.854 11.518l-169.105 169.105c-7.134 7.136-11.546 16.994-11.546 27.882 0 10.859 4.389 20.693 11.489 27.825l-0.001-0.001z" />
<glyph unicode="&#xe91f;" glyph-name="arrow-up" d="M512.059 959.941c-282.77 0-512-229.23-512-512s229.23-512 512-512c282.77 0 512 229.23 512 512v0c0 282.77-229.23 512-512 512v0zM708.959 487.322c-7.134-7.116-16.979-11.517-27.853-11.517s-20.719 4.4-27.854 11.518l-101.872 101.872v-377.534c0-21.749-17.631-39.38-39.38-39.38s-39.38 17.631-39.38 39.38v0 377.534l-101.873-101.873c-7.128-7.128-16.976-11.537-27.853-11.537-21.754 0-39.39 17.635-39.39 39.39 0 10.877 4.409 20.725 11.537 27.853l169.048 169.106c7.134 7.116 16.979 11.517 27.853 11.517s20.719-4.4 27.854-11.518l169.105-169.105c7.134-7.136 11.546-16.994 11.546-27.882 0-10.859-4.389-20.693-11.489-27.825l0.001 0.001z" />
<glyph unicode="&#xe920;" glyph-name="gavel" d="M1010.24 44.256l-548.64 499.456 25.6 25.6c19.477 19.552 32.088 45.956 33.904 75.283l0.016 0.333c1.196 0.51 2.163 0.992 3.101 1.521l-0.157-0.081 102.976 64.416c6.134 7.424 9.855 17.039 9.855 27.523 0 11.686-4.623 22.293-12.14 30.090l0.013-0.013-179.2 179.52c-7.737 7.499-18.299 12.122-29.942 12.122-10.444 0-20.019-3.72-27.473-9.907l0.071 0.057-64.224-103.264q-0.768-1.44-1.44-2.976c-29.602-1.851-55.937-14.5-75.389-34.013l-0.003-0.003-97.44-97.696c-19.477-19.552-32.088-45.956-33.904-75.283l-0.016-0.333c-0.992-0.448-2.016-0.928-2.976-1.44l-102.976-64.416c-6.147-7.42-9.877-17.038-9.877-27.527 0-11.689 4.632-22.296 12.161-30.086l-0.012 0.012 179.2-179.616c7.737-7.499 18.299-12.122 29.942-12.122 10.444 0 20.019 3.72 27.473 9.907l-0.071-0.057 64.224 103.264c0.446 0.786 0.928 1.764 1.36 2.768l0.080 0.208c29.602 1.851 55.937 14.5 75.389 34.013l28.291 28.387 498.048-550.016c6.332-8.355 16.262-13.696 27.44-13.696 8.41 0 16.114 3.024 22.084 8.043l-0.052-0.043 50.368 50.496c4.957 5.94 7.967 13.655 7.967 22.073 0 11.197-5.325 21.15-13.58 27.466l-0.083 0.061z" />
<glyph unicode="&#xe921;" glyph-name="chart" horiz-adv-x="1109" d="M42.112 960h-42.112v-1024h1109.333v41.088l-1066.667 2.133-0.555 980.779zM597.333 917.333c0 23.564-19.103 42.667-42.667 42.667v0h-128c-23.564 0-42.667-19.103-42.667-42.667v0-853.333h213.333zM341.333 661.333c0 23.564-19.103 42.667-42.667 42.667v0h-128c-23.564 0-42.667-19.103-42.667-42.667v0-597.333h213.333zM853.333 405.333c0 23.564-19.103 42.667-42.667 42.667v0h-128c-23.564 0-42.667-19.103-42.667-42.667v0-341.333h213.333zM1066.667 192h-128c-23.564 0-42.667-19.103-42.667-42.667v0-85.333h213.333v85.333c0 23.564-19.103 42.667-42.667 42.667v0z" />
<glyph unicode="&#xe922;" glyph-name="hour-glass" horiz-adv-x="896" d="M665.056 448c140.291 96.124 231.142 255.512 231.142 436.12 0 4.177-0.049 8.343-0.145 12.497l0.011-0.617c0 0.048 0 0.105 0 0.162 0 22.489-1.267 44.683-3.734 66.513l0.246-2.676h-889.056c-2.201-19.066-3.456-41.158-3.456-63.545 0-0.16 0-0.32 0-0.48v0.025c-0.086-3.543-0.134-7.717-0.134-11.901 0-180.594 90.838-339.972 229.315-434.936l1.795-1.163c-140.273-96.126-231.11-255.504-231.11-436.099 0-4.185 0.049-8.358 0.146-12.52l-0.011 0.618c0-0.048 0-0.106 0-0.164 0-22.489 1.267-44.682 3.734-66.512l-0.246 2.676h889.024c2.221 19.154 3.488 41.347 3.488 63.836 0 0.058 0 0.116 0 0.174v-0.009c0.085 3.537 0.134 7.703 0.134 11.88 0 180.608-90.851 339.996-229.346 434.957l-1.796 1.163zM96.064 0c0 186.912 80.16 345.408 224 397.696v100.576c-143.84 52.288-224 210.784-224 397.728h704c0-186.912-80.16-345.408-224-397.696v-100.576c143.84-52.288 224-210.784 224-397.696zM555.68 290.4c-45.122 21.294-75.786 66.415-75.786 118.699 0 2.349 0.062 4.683 0.184 7.001l-0.014-0.324v64.224c-0.115 2.049-0.18 4.447-0.18 6.861 0 52.348 30.725 97.52 75.126 118.465l0.798 0.338c40.294 24.497 73.038 57.65 96.348 97.044l0.708 1.292h-409.6c24.036-40.721 56.814-73.897 95.922-97.704l1.23-0.696c45.139-21.287 75.818-66.418 75.818-118.713 0-2.343-0.062-4.673-0.183-6.986l0.014 0.323v-64.224c0.115-2.049 0.18-4.447 0.18-6.861 0-52.348-30.725-97.52-75.126-118.465l-0.798-0.338c-77.043-50.081-130.468-130.929-142.928-224.718l-0.176-1.618h501.664c-12.617 95.454-66.089 176.339-141.97 225.651l-1.23 0.749z" />
<glyph unicode="&#xe923;" glyph-name="notice" d="M512 960c-282.77 0-512-229.23-512-512s229.23-512 512-512c282.77 0 512 229.23 512 512v0c0 282.77-229.23 512-512 512v0zM512 157.538c-32.627 0-59.077 26.45-59.077 59.077s26.45 59.077 59.077 59.077c32.627 0 59.077-26.45 59.077-59.077v0c0-32.627-26.45-59.077-59.077-59.077v0zM571.077 413.538c0-32.627-26.45-59.077-59.077-59.077s-59.077 26.45-59.077 59.077v0 275.692c0 32.627 26.45 59.077 59.077 59.077s59.077-26.45 59.077-59.077v0z" />
<glyph unicode="&#xe924;" glyph-name="filter" d="M512 960c-282.786 0-512-71.626-512-160.013v-95.987l384-384v-320.027c0-35.355 57.29-63.973 128-63.973s128 28.618 128 63.973v320.027l384 384v95.987c0 88.387-229.214 160.013-512 160.013zM94.424 821.167c27.832 15.234 60.1 28.141 93.988 37.051l3.023 0.675c91.386 23.657 196.298 37.237 304.382 37.237 5.69 0 11.372-0.038 17.044-0.113l-0.86 0.009c4.557 0.059 9.939 0.093 15.33 0.093 108.318 0 213.446-13.656 313.757-39.339l-8.736 1.897c36.922-9.622 69.187-22.526 99.315-38.87l-2.304 1.143c10.901-5.758 20.233-12.821 28.263-21.147l0.032-0.033c-8.081-8.329-17.408-15.387-27.693-20.887l-0.601-0.294c-27.911-15.248-60.272-28.157-94.256-37.054l-3.024-0.673c-91.072-23.491-195.624-36.975-303.325-36.975-5.892 0-11.774 0.040-17.647 0.121l0.891-0.010c-4.557-0.059-9.939-0.093-15.33-0.093-108.318 0-213.446 13.656-313.757 39.339l8.736-1.897c-36.924 9.629-69.188 22.533-99.319 38.871l2.308-1.145c-10.896 5.771-20.227 12.832-28.264 21.149l-0.030 0.031c8.081 8.329 17.408 15.387 27.693 20.887l0.601 0.294z" />
<glyph unicode="&#xe925;" glyph-name="busca" d="M990.171-43.315l24.814 24.832c12.618 12.708 20.609 30.28 20.609 49.684s-8.412 36.977-20.609 49.684v0l-198.541 198.744c-12.618 12.288-29.722 19.855-48.507 19.855-12.618 0-25.654-3.729-36.17-10.189l0.294 0.173-108.51 108.545c43.319 57.84 69.256 130.783 69.256 209.806 0 194.503-157.689 352.18-352.208 352.18-194.504 0-352.194-157.676-352.194-352.18s157.689-352.18 352.194-352.18c90.705 0 173.419 34.294 235.861 90.614l-0.322-0.277 106.267-106.271c-5.608-10.222-9.814-22.589-9.814-35.82 0-18.924 7.010-36.076 19.907-48.579l198.682-198.737c12.618-12.718 30.282-20.572 49.769-20.572 19.346 0 37.010 7.867 49.629 20.572v0zM339.842 344.23c-0.014 0-0.028 0-0.028 0-145.521 0-263.479 117.952-263.479 263.452s117.903 263.452 263.479 263.452c145.493 0 263.437-117.931 263.465-263.415v-0.002c0-0.010 0-0.022 0-0.035 0-145.488-117.903-263.432-263.437-263.452z" />
<glyph unicode="&#xe926;" glyph-name="target" horiz-adv-x="858" d="M857.981 887.413l-75.984-67.243-46.008-0.708-96.617-101.041c61.986-65.969 100.069-155.025 100.069-252.976 0-204.235-165.565-369.799-369.799-369.799s-369.799 165.565-369.799 369.799c0 204.235 165.565 369.799 369.799 369.799 93.888 0 179.605-34.989 244.821-92.64l-0.395 0.342 93.255 93.255v41.089l71.56 82.638v-73.578l79.205 0.991zM601.857 681.084l-94.069-94.104c32.582-34.993 52.58-82.081 52.58-133.84 0-108.597-88.035-196.632-196.632-196.632s-196.632 88.035-196.632 196.632c0 108.597 88.035 196.632 196.632 196.632 44.406 0 85.374-14.72 118.291-39.547l-0.499 0.361 95.060 95.060c-56.252 49.185-130.373 79.182-211.501 79.182-177.867 0-322.057-144.19-322.057-322.057s144.19-322.057 322.057-322.057c177.867 0 322.057 144.19 322.057 322.057 0 84.344-32.423 161.115-85.485 218.53l0.197-0.216zM364.278 400.152c-29.192 0-52.856 23.665-52.856 52.856s23.665 52.856 52.856 52.856v0c3.919-0.353 7.526-1.104 10.968-2.222l-0.351 0.098 81.859 81.859c-26.363 19.156-59.376 30.645-95.073 30.645-89.911 0-162.798-72.887-162.798-162.798s72.887-162.798 162.798-162.798c89.911 0 162.798 72.887 162.798 162.798 0 41.793-15.748 79.908-41.634 108.734l0.133-0.151-77.329-77.364c7.055-8.631 11.409-19.711 11.643-31.801l0.001-0.051c0-29.162-23.641-52.803-52.803-52.803-0.012 0-0.025 0-0.037 0h0.002zM211.496 67.477q15.749-7.963 32.383-14.369l-62.642-108.225c-3.229-4.699-8.574-7.74-14.63-7.74-9.773 0-17.695 7.923-17.695 17.695 0 2.817 0.658 5.48 1.829 7.844l-0.046-0.103zM388.45 39.766v-49.547c0-9.773-7.923-17.695-17.695-17.695s-17.695 7.923-17.695 17.695v0 49.547c5.875-0.283 11.679-0.885 17.695-0.885s11.856 0.743 17.731 1.026zM604.335-37.669c1.187-2.313 1.882-5.046 1.882-7.941 0-9.773-7.923-17.695-17.695-17.695-6.14 0-11.55 3.128-14.724 7.877l-0.040 0.064-62.677 108.579c11.042 4.282 21.872 9.060 32.383 14.369z" />
<glyph unicode="&#xe927;" glyph-name="flag" d="M0 960h128v-1024h-128zM832 316.992c5.174-0.289 11.227-0.454 17.319-0.454 64.713 0 125.080 18.606 176.044 50.761l-1.363-0.803v512c-49.6-31.352-109.968-49.958-174.681-49.958-6.092 0-12.146 0.165-18.156 0.49l0.837-0.036c-5.174-0.289-11.227-0.454-17.319-0.454-64.713 0-125.080 18.606-176.044 50.761l1.363-0.803v-512c49.6-31.352 109.968-49.958 174.681-49.958 6.092 0 12.146 0.165 18.156 0.49l-0.837-0.036zM608 927.488c-53.525 20.672-115.461 32.648-180.194 32.648-4.151 0-8.291-0.049-12.419-0.147l0.613 0.012c-96.384 0-180.32-20-224-49.504v-512c43.68 29.504 127.616 49.504 224 49.504 3.515 0.086 7.655 0.136 11.806 0.136 64.733 0 126.669-11.976 183.713-33.832l-3.519 1.185v512z" />
<glyph unicode="&#xe928;" glyph-name="heart" horiz-adv-x="1106" d="M815.523 960c-116.212 0-216.252-94.545-262.626-193.307-46.34 98.761-146.38 193.307-262.626 193.307-160.312 0-290.271-129.959-290.271-290.271v0c0-325.967 328.836-411.425 552.897-733.694 211.829 320.266 552.897 418.128 552.897 733.694 0 160.312-129.959 290.271-290.271 290.271v0z" />
<glyph unicode="&#xe929;" glyph-name="redo" horiz-adv-x="863" d="M479.040 711.616v248.384l384-384-384-384v253.824c-446.752 10.496-427.584-303.776-313.856-509.824-280.704 303.424-221.088 789.568 313.856 775.616z" />
<glyph unicode="&#xe92a;" glyph-name="undo" horiz-adv-x="863" d="M384 711.616v248.384l-384-384 384-384v253.824c446.752 10.496 427.584-303.776 313.856-509.824 280.704 303.424 221.088 789.568-313.856 775.616z" />
<glyph unicode="&#xe92b;" glyph-name="question2" d="M448 256h128v-128h-128zM704 704c35.346 0 64-28.654 64-64v0-192l-192-128h-128v64l192 128v64h-320v128zM512 864c-229.74-0.014-415.975-186.258-415.975-416 0-114.869 46.557-218.864 121.832-294.144v0c75.54-76.901 180.628-124.559 296.847-124.559 229.75 0 416 186.25 416 416 0 116.22-47.659 221.308-124.498 296.787l-0.061 0.060c-74.884 75.273-178.542 121.857-293.081 121.857-0.374 0-0.748 0-1.121-0.001h0.059zM512 960v0c282.77 0 512-229.23 512-512s-229.23-512-512-512c-282.77 0-512 229.23-512 512v0c0 282.77 229.23 512 512 512v0z" />
<glyph unicode="&#xe92c;" glyph-name="earth" d="M512 960c-282.77 0-512-229.23-512-512s229.23-512 512-512c282.77 0 512 229.23 512 512v0c0 282.77-229.23 512-512 512v0zM512 0c-0.144 0-0.315 0-0.486 0-63.885 0-124.637 13.411-179.596 37.572l2.866-1.124 233.152 262.4c4.987 5.601 8.041 13.017 8.064 21.147v96.005c0 17.673-14.327 32-32 32v0c-112.992 0-232.192 117.472-233.376 118.624-5.79 5.791-13.788 9.374-22.624 9.376h-128c-17.673 0-32-14.327-32-32v0-192c0.007-12.453 7.126-23.241 17.514-28.524l0.182-0.084 110.304-55.168v-187.872c-116.674 82.066-191.976 216.124-191.976 367.769 0 69.715 15.915 135.714 44.31 194.56l-1.166-2.681h116.832c8.836 0.002 16.834 3.585 22.624 9.376l128 128c5.791 5.79 9.374 13.788 9.376 22.624v0 77.408c38.292 11.798 82.31 18.593 127.915 18.593 71.456 0 139.015-16.68 198.998-46.359l-2.625 1.174c-4.16-3.488-8.192-7.168-12.032-11.040-34.752-34.746-56.247-82.751-56.247-135.776 0-106.035 85.956-191.995 191.99-192h0.001c3.2 0 6.4 0 9.6 0.224 12.343-50.987 19.422-109.524 19.422-169.714 0-72.129-10.166-141.883-29.142-207.908l1.304 5.302c-0.399-1.513-0.695-3.293-0.826-5.119l-0.006-0.097c-81.181-83.133-194.383-134.689-319.626-134.689-0.255 0-0.51 0-0.765 0.001h0.039z" />
<glyph unicode="&#xe92d;" glyph-name="user" horiz-adv-x="1103" d="M630.202 247.871v64.95c95.357 63.826 157.348 171.036 157.551 292.737v0.031c0 195.796 0 354.489-236.326 354.489s-236.326-158.693-236.326-354.489c0.202-121.721 62.194-228.919 156.279-291.927l1.272-0.802v-64.95c-267.206-21.9-472.652-153.179-472.652-311.911h1102.854c0 158.732-205.446 290.051-472.652 311.871z" />
<glyph unicode="&#xe92e;" glyph-name="user-check" d="M960 352l-288-288-96 96-64-64 160-160 352 352zM448 192h320v115.2c-73.956 41.285-161.237 68.059-254.16 74.175l-1.84 0.097v52.704c77.458 51.853 127.818 138.938 128 237.796v0.028c0 159.072 0 288-192 288s-192-128.928-192-288c0.164-98.891 50.529-185.983 126.967-237.172l1.033-0.652v-52.768c-217.088-17.76-384-124.416-384-253.408h448v64z" />
<glyph unicode="&#xe92f;" glyph-name="edit" horiz-adv-x="1036" d="M296.494 368.336l-97.522-250.316 245.99 101.848-148.468 148.468zM1010.535 902.829l-31.212 31.212c-15.977 15.973-38.047 25.852-62.424 25.852s-46.447-9.879-62.425-25.852v0l-62.424-62.115 156.061-156.105 62.424 62.424c15.986 15.979 25.874 38.058 25.874 62.447s-9.888 46.467-25.873 62.446v0zM301.439 381.095l22.339 22.339 156.061-156.061 437.060 437.060-156.017 156.061 31.212 31.256zM840.347 24.295l-751.478-0.441v751.654h526.282l82.6 87.589h-653.603c-24.382 0-44.147-19.765-44.147-44.147v0-838.801c0-24.382 19.765-44.147 44.147-44.147v0h838.801c24.382 0 44.147 19.765 44.147 44.147v0 620.625l-88.957-87.279 2.207-489.198z" />
<glyph unicode="&#xe930;" glyph-name="arrow-circle-right" d="M1024 448c0 282.77-229.23 512-512 512s-512-229.23-512-512c0-282.77 229.23-512 512-512v0c282.77 0 512 229.23 512 512v0zM551.38 251.099c-7.116 7.134-11.517 16.979-11.517 27.853s4.4 20.719 11.518 27.854l101.872 101.872h-377.534c-21.749 0-39.38 17.631-39.38 39.38s17.631 39.38 39.38 39.38v0h377.534l-101.873 101.873c-7.128 7.128-11.537 16.976-11.537 27.853 0 21.754 17.635 39.39 39.39 39.39 10.877 0 20.725-4.409 27.853-11.537l169.106-169.048c7.116-7.134 11.517-16.979 11.517-27.853s-4.4-20.719-11.518-27.854l-169.105-169.105c-7.136-7.134-16.994-11.546-27.882-11.546-10.859 0-20.693 4.389-27.825 11.489l0.001-0.001z" />
<glyph unicode="&#xe931;" glyph-name="cross" d="M1014.656 137.344v0l-310.656 310.656 310.656 310.656c5.789 5.791 9.369 13.789 9.369 22.624s-3.58 16.833-9.369 22.624l-146.752 146.752c-5.791 5.789-13.789 9.369-22.624 9.369s-16.833-3.58-22.624-9.369l-310.656-310.656-310.656 310.688c-5.791 5.789-13.789 9.369-22.624 9.369s-16.833-3.58-22.624-9.369l-146.752-146.784c-5.789-5.791-9.369-13.789-9.369-22.624s3.58-16.833 9.369-22.624l310.656-310.656-310.656-310.656c-3.135-3.162-5.625-6.968-7.253-11.202l-0.075-0.222c-1.285-3.331-2.029-7.185-2.029-11.212 0-8.829 3.575-16.822 9.357-22.612v0l146.752-146.752c5.791-5.789 13.789-9.369 22.624-9.369s16.833 3.58 22.624 9.369l310.656 310.656 310.656-310.656c5.791-5.789 13.789-9.369 22.624-9.369s16.833 3.58 22.624 9.369l146.752 146.752c5.789 5.791 9.369 13.789 9.369 22.624s-3.58 16.833-9.369 22.624v0z" />
<glyph unicode="&#xe932;" glyph-name="share" d="M864.054 256.020c-0.041 0-0.090 0-0.139 0-45.093 0-85.815-18.709-114.83-48.787l-0.046-0.048-431.035 215.501c1.282 7.609 2.015 16.376 2.015 25.314s-0.733 17.704-2.142 26.243l0.127-0.929 431.035 215.501c29.091-30.021 69.781-48.655 114.824-48.655 88.265 0 159.818 71.553 159.818 159.818s-71.553 159.818-159.818 159.818c-88.265 0-159.818-71.553-159.818-159.818 0-8.934 0.733-17.696 2.142-26.231l-0.127 0.929-431.035-215.501c-29.136 30.13-69.923 48.835-115.080 48.835-88.371 0-160.010-71.639-160.010-160.010s71.639-160.010 160.010-160.010c45.156 0 85.944 18.705 115.037 48.79l0.043 0.045 431.035-215.501c-1.282-7.609-2.015-16.376-2.015-25.314 0-88.371 71.639-160.010 160.010-160.010s160.010 71.639 160.010 160.010c0 88.371-71.639 160.010-160.010 160.010 0 0-0.001 0-0.001 0v0z" />
<glyph unicode="&#xe933;" glyph-name="infinite" horiz-adv-x="2184" d="M1672.31-64c-0.304-0.001-0.663-0.001-1.023-0.001-141.014 0-268.619 57.413-360.714 150.139l-0.028 0.029-218.424 218.424-218.424-218.424c-92.64-92.633-220.618-149.928-361.977-149.928-282.732 0-511.932 229.2-511.932 511.932s229.2 511.932 511.932 511.932c141.359 0 269.337-57.295 361.977-149.928l218.424-218.424 218.424 218.424c92.664 92.776 220.737 150.166 362.215 150.166 282.732 0 511.932-229.2 511.932-511.932s-229.2-511.932-511.932-511.932c-0.158 0-0.317 0-0.475 0h0.025zM1453.886 229.508c55.847-55.858 133.004-90.407 218.23-90.407 170.431 0 308.592 138.162 308.592 308.592s-138.162 308.592-308.592 308.592c-85.227 0-162.384-34.549-218.23-90.407l-218.425-218.425zM511.932 756.456c-170.165-0.302-307.994-138.317-307.994-308.524 0-170.393 138.131-308.524 308.524-308.524 85.065 0 162.089 34.426 217.9 90.105l218.418 218.418-218.424 218.424c-55.495 55.663-132.25 90.103-217.049 90.103-0.484 0-0.967-0.001-1.45-0.003h0.075z" />
<glyph unicode="&#xe934;" glyph-name="image" horiz-adv-x="1170" d="M1097.001 886.858s0.105 0 0.14-0.14v-877.489s0-0.105-0.14-0.14h-1023.772s-0.105 0-0.14 0.14v877.489s0 0.105 0.14 0.14h1023.772zM1097.142 960h-1024.018c-40.347-0.119-73.022-32.795-73.142-73.13v-877.71c0.119-40.347 32.795-73.022 73.13-73.142h1024.029c40.32 0.139 72.968 32.787 73.107 73.093v877.747c-0.119 40.335-32.775 73.003-73.093 73.142h-0.013zM950.841 703.996c0-60.597-49.124-109.721-109.721-109.721s-109.721 49.124-109.721 109.721c0 60.597 49.124 109.721 109.721 109.721 0.006 0 0.012 0 0.018 0h-0.001c60.588 0 109.704-49.116 109.704-109.704 0-0.006 0-0.012 0-0.019v0.001zM1023.965 82.283h-877.699v146.283l256.004 438.85 292.566-365.726h73.142l255.987 219.442z" />
<glyph unicode="&#xe935;" glyph-name="plus" d="M992 576h-352v352c0 17.672-14.328 32-32 32h-192c-17.672 0-32-14.328-32-32v-352h-352c-17.672 0-32-14.328-32-32v-192c0-17.672 14.328-32 32-32h352v-352c0-17.672 14.328-32 32-32h192c17.672 0 32 14.328 32 32v352h352c17.672 0 32 14.328 32 32v192c0 17.672-14.328 32-32 32z" />
</font>
</defs>
</svg>
